<svg width="22" height="22" viewBox="0 0 22 22" fill="none" xmlns="http://www.w3.org/2000/svg">
<ellipse cx="10.8775" cy="10.8775" rx="6.33156" ry="6.33156" fill="black"/>
<path d="M21.7549 10.8776L19.2922 8.14334L19.6778 4.48281L16.0766 3.72042L14.2396 0.529297L10.8775 2.03188L7.51534 0.529297L5.67838 3.72042L2.0772 4.48281L2.46276 8.14334L0 10.8776L2.46271 13.6119L2.07716 17.2725L5.67834 18.0349L7.5153 21.226L10.8774 19.7234L14.2396 21.226L16.0765 18.0349L19.6777 17.2725L19.2921 13.6119L21.7549 10.8776ZM15.4376 8.49593L9.9775 14.6131L6.18335 10.819L7.0858 9.91654L9.9248 12.7555L14.4854 7.64607L15.4376 8.49593Z" fill="#F6C73B"/>
</svg>
