<svg width="31" height="31" viewBox="0 0 31 31" fill="none" xmlns="http://www.w3.org/2000/svg">
<path opacity="0.24" d="M15.7436 30.4208C24.0384 30.4208 30.7626 23.6966 30.7626 15.4018C30.7626 7.10704 24.0384 0.382812 15.7436 0.382812C7.44884 0.382812 0.724609 7.10704 0.724609 15.4018C0.724609 23.6966 7.44884 30.4208 15.7436 30.4208Z" fill="#979797"/>
<path fill-rule="evenodd" clip-rule="evenodd" d="M17.8906 9.67947L18.4642 10.2577C18.6527 10.4582 18.7471 10.6922 18.7471 10.9594C18.7471 11.232 18.6527 11.4633 18.4642 11.6536L14.7476 15.4016L18.4641 19.1496C18.6526 19.3398 18.747 19.5712 18.747 19.8437C18.747 20.111 18.6526 20.345 18.4641 20.5454L17.8905 21.1161C17.6969 21.3115 17.4648 21.4092 17.1946 21.4092C16.9193 21.4092 16.6899 21.3114 16.5064 21.1161L11.5282 16.0957C11.3344 15.9105 11.2376 15.6793 11.2376 15.4016C11.2376 15.1291 11.3344 14.8952 11.5282 14.6999L16.5064 9.67947C16.6951 9.48921 16.9245 9.39399 17.1946 9.39399C17.4598 9.39399 17.6917 9.48921 17.8906 9.67947Z" fill="#979797"/>
</svg>
