<svg width="47" height="40" viewBox="0 0 47 40" fill="none" xmlns="http://www.w3.org/2000/svg">
<rect x="0.5" y="0.5" width="46" height="39" rx="4.5" stroke="#C5C5C5"/>
<path fill-rule="evenodd" clip-rule="evenodd" d="M22.8126 26.4531C22.6048 26.4531 22.4063 26.3711 22.2595 26.2234L16.1915 20.1453C14.6009 18.5516 14.6009 15.9586 16.1915 14.3648C16.9595 13.5961 17.9853 13.1719 19.0782 13.1719C20.1712 13.1719 21.197 13.5961 21.9649 14.3648L22.8126 15.2141L23.6595 14.3656C24.4282 13.5961 25.454 13.1719 26.547 13.1719C27.6399 13.1719 28.6657 13.5961 29.4337 14.3648C31.0243 15.9586 31.0243 18.5516 29.4345 20.1453L23.3657 26.2242C23.2188 26.3711 23.0204 26.4531 22.8126 26.4531Z" fill="#B1A7A9"/>
</svg>
