<svg width="31" height="31" viewBox="0 0 31 31" fill="none" xmlns="http://www.w3.org/2000/svg">
<path opacity="0.24" d="M15.5097 30.4208C23.8045 30.4208 30.5287 23.6966 30.5287 15.4018C30.5287 7.10704 23.8045 0.382812 15.5097 0.382812C7.21495 0.382812 0.490723 7.10704 0.490723 15.4018C0.490723 23.6966 7.21495 30.4208 15.5097 30.4208Z" fill="#979797"/>
<path fill-rule="evenodd" clip-rule="evenodd" d="M13.3628 9.67947L12.7892 10.2577C12.6007 10.4582 12.5063 10.6922 12.5063 10.9594C12.5063 11.232 12.6007 11.4633 12.7892 11.6536L16.5058 15.4016L12.7893 19.1496C12.6008 19.3398 12.5064 19.5712 12.5064 19.8437C12.5064 20.111 12.6008 20.345 12.7893 20.5454L13.3629 21.1161C13.5566 21.3115 13.7886 21.4092 14.0588 21.4092C14.3341 21.4092 14.5635 21.3114 14.747 21.1161L19.7252 16.0957C19.919 15.9105 20.0158 15.6793 20.0158 15.4016C20.0158 15.1291 19.919 14.8952 19.7252 14.6999L14.747 9.67947C14.5583 9.48921 14.3289 9.39399 14.0588 9.39399C13.7936 9.39399 13.5617 9.48921 13.3628 9.67947Z" fill="#979797"/>
</svg>
